<mxfile host="65bd71144e">
    <diagram id="fAA6A-x5xKtfqb4yVwIF" name="Page-1">
        <mxGraphModel dx="1513" dy="1024" grid="1" gridSize="10" guides="1" tooltips="1" connect="1" arrows="1" fold="1" page="1" pageScale="1" pageWidth="850" pageHeight="1100" math="0" shadow="0">
            <root>
                <mxCell id="0"/>
                <mxCell id="1" parent="0"/>
                <mxCell id="2" value="&lt;span style=&quot;color: rgba(0, 0, 0, 0); font-family: monospace; font-size: 0px; text-align: start;&quot;&gt;%3CmxGraphModel%3E%3Croot%3E%3CmxCell%20id%3D%220%22%2F%3E%3CmxCell%20id%3D%221%22%20parent%3D%220%22%2F%3E%3CmxCell%20id%3D%222%22%20value%3D%22reserver%26amp%3Bnbsp%3B%26lt%3Bspan%20style%3D%26quot%3Bfont-family%3A%20%26amp%3Bquot%3BNunito%20Sans%26amp%3Bquot%3B%2C%20sans-serif%3B%20font-size%3A%2014px%3B%20text-align%3A%20start%3B%20background-color%3A%20rgb(255%2C%20255%2C%20255)%3B%26quot%3B%26gt%3Bun%20v%C3%A9hicule%26lt%3B%2Fspan%26gt%3B%26lt%3Bbr%26gt%3B%26amp%3Bnbsp%3B%22%20style%3D%22ellipse%3BwhiteSpace%3Dwrap%3Bhtml%3D1%3B%22%20vertex%3D%221%22%20parent%3D%221%22%3E%3CmxGeometry%20x%3D%22230%22%20y%3D%22330%22%20width%3D%22120%22%20height%3D%2280%22%20as%3D%22geometry%22%2F%3E%3C%2FmxCell%3E%3C%2Froot%3E%3C%2FmxGraphModel%3E&lt;/span&gt;" style="rounded=0;whiteSpace=wrap;html=1;" parent="1" vertex="1">
                    <mxGeometry x="130" y="80" width="840" height="2990" as="geometry"/>
                </mxCell>
                <mxCell id="3" value="location voiture" style="text;html=1;strokeColor=none;fillColor=none;align=center;verticalAlign=middle;whiteSpace=wrap;rounded=0;" parent="1" vertex="1">
                    <mxGeometry x="465" y="90" width="90" height="30" as="geometry"/>
                </mxCell>
                <mxCell id="4" value="client" style="shape=umlActor;verticalLabelPosition=bottom;verticalAlign=top;html=1;outlineConnect=0;" parent="1" vertex="1">
                    <mxGeometry x="90" y="240" width="30" height="60" as="geometry"/>
                </mxCell>
                <mxCell id="5" value="créer un compte" style="ellipse;whiteSpace=wrap;html=1;fillColor=#dae8fc;strokeColor=#6c8ebf;" parent="1" vertex="1">
                    <mxGeometry x="250" y="150" width="120" height="80" as="geometry"/>
                </mxCell>
                <mxCell id="6" value="explorer les catégore des véhicules dispos" style="ellipse;whiteSpace=wrap;html=1;fillColor=#dae8fc;strokeColor=#6c8ebf;" parent="1" vertex="1">
                    <mxGeometry x="250" y="270" width="120" height="80" as="geometry"/>
                </mxCell>
                <mxCell id="7" value="afficher les détails d'une véhicule en cliquant&amp;nbsp;&lt;span style=&quot;color: rgba(0, 0, 0, 0); font-family: monospace; font-size: 0px; text-align: start;&quot;&gt;%3CmxGraphModel%3E%3Croot%3E%3CmxCell%20id%3D%220%22%2F%3E%3CmxCell%20id%3D%221%22%20parent%3D%220%22%2F%3E%3CmxCell%20id%3D%222%22%20value%3D%22%22%20style%3D%22ellipse%3BwhiteSpace%3Dwrap%3Bhtml%3D1%3B%22%20vertex%3D%221%22%20parent%3D%221%22%3E%3CmxGeometry%20x%3D%22230%22%20y%3D%22140%22%20width%3D%22120%22%20height%3D%2280%22%20as%3D%22geometry%22%2F%3E%3C%2FmxCell%3E%3C%2Froot%3E%3C%2FmxGraphModel%3E&lt;/span&gt;" style="ellipse;whiteSpace=wrap;html=1;fillColor=#f8cecc;strokeColor=#b85450;" parent="1" vertex="1">
                    <mxGeometry x="420" y="170" width="120" height="80" as="geometry"/>
                </mxCell>
                <mxCell id="8" value="rechercher un véhicule&amp;nbsp;&lt;span style=&quot;color: rgba(0, 0, 0, 0); font-family: monospace; font-size: 0px; text-align: start;&quot;&gt;%3CmxGraphModel%3E%3Croot%3E%3CmxCell%20id%3D%220%22%2F%3E%3CmxCell%20id%3D%221%22%20parent%3D%220%22%2F%3E%3CmxCell%20id%3D%222%22%20value%3D%22reserver%26amp%3Bnbsp%3B%26lt%3Bspan%20style%3D%26quot%3Bfont-family%3A%20%26amp%3Bquot%3BNunito%20Sans%26amp%3Bquot%3B%2C%20sans-serif%3B%20font-size%3A%2014px%3B%20text-align%3A%20start%3B%20background-color%3A%20rgb(255%2C%20255%2C%20255)%3B%26quot%3B%26gt%3Bun%20v%C3%A9hicule%26lt%3B%2Fspan%26gt%3B%26lt%3Bbr%26gt%3B%26amp%3Bnbsp%3B%22%20style%3D%22ellipse%3BwhiteSpace%3Dwrap%3Bhtml%3D1%3B%22%20vertex%3D%221%22%20parent%3D%221%22%3E%3CmxGeometry%20x%3D%22230%22%20y%3D%22330%22%20width%3D%22120%22%20height%3D%2280%22%20as%3D%22geometry%22%2F%3E%3C%2FmxCell%3E%3C%2Froot%3E%3C%2FmxGraphModel%3E&lt;/span&gt;" style="ellipse;whiteSpace=wrap;html=1;fillColor=#f8cecc;strokeColor=#b85450;" parent="1" vertex="1">
                    <mxGeometry x="480" y="270" width="120" height="80" as="geometry"/>
                </mxCell>
                <mxCell id="9" value="&lt;span style=&quot;background-color: rgb(205, 232, 249);&quot;&gt;reserver&amp;nbsp;&lt;span style=&quot;font-family: &amp;quot;Nunito Sans&amp;quot;, sans-serif; font-size: 14px; text-align: start;&quot;&gt;un véhicule&lt;/span&gt;&lt;br&gt;&amp;nbsp;&lt;/span&gt;" style="ellipse;whiteSpace=wrap;html=1;fillColor=#dae8fc;strokeColor=#6c8ebf;" parent="1" vertex="1">
                    <mxGeometry x="250" y="510" width="120" height="80" as="geometry"/>
                </mxCell>
                <mxCell id="10" value="filter par categorie les véhicules&amp;nbsp;" style="ellipse;whiteSpace=wrap;html=1;fillColor=#f8cecc;strokeColor=#b85450;" parent="1" vertex="1">
                    <mxGeometry x="420" y="370" width="120" height="80" as="geometry"/>
                </mxCell>
                <mxCell id="11" value="ajouter avis&amp;nbsp;" style="ellipse;whiteSpace=wrap;html=1;fillColor=#dae8fc;strokeColor=#6c8ebf;" parent="1" vertex="1">
                    <mxGeometry x="250" y="610" width="120" height="80" as="geometry"/>
                </mxCell>
                <mxCell id="12" value="lister les voitures dispos par pages&amp;nbsp;" style="ellipse;whiteSpace=wrap;html=1;fillColor=#dae8fc;strokeColor=#6c8ebf;" parent="1" vertex="1">
                    <mxGeometry x="250" y="400" width="120" height="80" as="geometry"/>
                </mxCell>
                <mxCell id="13" value="supprimer avis&amp;nbsp;" style="ellipse;whiteSpace=wrap;html=1;fillColor=#f8cecc;strokeColor=#b85450;" parent="1" vertex="1">
                    <mxGeometry x="450" y="550" width="120" height="80" as="geometry"/>
                </mxCell>
                <mxCell id="14" value="modifier avis" style="ellipse;whiteSpace=wrap;html=1;fillColor=#f8cecc;strokeColor=#b85450;" parent="1" vertex="1">
                    <mxGeometry x="450" y="660" width="120" height="80" as="geometry"/>
                </mxCell>
                <mxCell id="15" value="administrateur" style="shape=umlActor;verticalLabelPosition=bottom;verticalAlign=top;html=1;outlineConnect=0;" parent="1" vertex="1">
                    <mxGeometry x="50" y="2140" width="30" height="60" as="geometry"/>
                </mxCell>
                <mxCell id="21" value="" style="endArrow=none;html=1;exitX=0.5;exitY=0;exitDx=0;exitDy=0;exitPerimeter=0;entryX=0;entryY=0.5;entryDx=0;entryDy=0;" parent="1" source="4" target="5" edge="1">
                    <mxGeometry width="50" height="50" relative="1" as="geometry">
                        <mxPoint x="370" y="460" as="sourcePoint"/>
                        <mxPoint x="420" y="410" as="targetPoint"/>
                    </mxGeometry>
                </mxCell>
                <mxCell id="22" value="" style="endArrow=none;html=1;exitX=1;exitY=0.3333333333333333;exitDx=0;exitDy=0;exitPerimeter=0;entryX=0;entryY=0;entryDx=0;entryDy=0;" parent="1" source="4" target="6" edge="1">
                    <mxGeometry width="50" height="50" relative="1" as="geometry">
                        <mxPoint x="470" y="590" as="sourcePoint"/>
                        <mxPoint x="520" y="540" as="targetPoint"/>
                        <Array as="points"/>
                    </mxGeometry>
                </mxCell>
                <mxCell id="27" value="&amp;lt;&amp;lt;extend&amp;gt;&amp;gt;" style="html=1;verticalAlign=bottom;labelBackgroundColor=none;endArrow=open;endFill=0;dashed=1;entryX=1;entryY=0;entryDx=0;entryDy=0;exitX=0.046;exitY=0.713;exitDx=0;exitDy=0;exitPerimeter=0;" parent="1" source="7" target="6" edge="1">
                    <mxGeometry width="160" relative="1" as="geometry">
                        <mxPoint x="430" y="420" as="sourcePoint"/>
                        <mxPoint x="590" y="420" as="targetPoint"/>
                    </mxGeometry>
                </mxCell>
                <mxCell id="28" value="&amp;lt;&amp;lt;extend&amp;gt;&amp;gt;" style="html=1;verticalAlign=bottom;labelBackgroundColor=none;endArrow=open;endFill=0;dashed=1;entryX=1;entryY=0.5;entryDx=0;entryDy=0;exitX=0;exitY=0.5;exitDx=0;exitDy=0;" parent="1" source="8" target="6" edge="1">
                    <mxGeometry width="160" relative="1" as="geometry">
                        <mxPoint x="435.52" y="237.03999999999996" as="sourcePoint"/>
                        <mxPoint x="362.42640687119297" y="291.715728752538" as="targetPoint"/>
                    </mxGeometry>
                </mxCell>
                <mxCell id="29" value="&amp;lt;&amp;lt;extend&amp;gt;&amp;gt;" style="html=1;verticalAlign=bottom;labelBackgroundColor=none;endArrow=open;endFill=0;dashed=1;entryX=1;entryY=1;entryDx=0;entryDy=0;" parent="1" source="10" target="6" edge="1">
                    <mxGeometry width="160" relative="1" as="geometry">
                        <mxPoint x="445.52" y="247.03999999999996" as="sourcePoint"/>
                        <mxPoint x="372.42640687119297" y="301.715728752538" as="targetPoint"/>
                    </mxGeometry>
                </mxCell>
                <mxCell id="30" value="&amp;lt;&amp;lt;extend&amp;gt;&amp;gt;" style="html=1;verticalAlign=bottom;labelBackgroundColor=none;endArrow=open;endFill=0;dashed=1;entryX=0.5;entryY=1;entryDx=0;entryDy=0;exitX=0.5;exitY=0;exitDx=0;exitDy=0;" parent="1" source="12" target="6" edge="1">
                    <mxGeometry width="160" relative="1" as="geometry">
                        <mxPoint x="455.52" y="257.03999999999996" as="sourcePoint"/>
                        <mxPoint x="382.42640687119297" y="311.715728752538" as="targetPoint"/>
                    </mxGeometry>
                </mxCell>
                <mxCell id="31" value="&amp;lt;&amp;lt;extend&amp;gt;&amp;gt;" style="html=1;verticalAlign=bottom;labelBackgroundColor=none;endArrow=open;endFill=0;dashed=1;exitX=0.018;exitY=0.642;exitDx=0;exitDy=0;exitPerimeter=0;" parent="1" source="13" target="11" edge="1">
                    <mxGeometry width="160" relative="1" as="geometry">
                        <mxPoint x="510" y="530" as="sourcePoint"/>
                        <mxPoint x="670" y="530" as="targetPoint"/>
                    </mxGeometry>
                </mxCell>
                <mxCell id="32" value="&amp;lt;&amp;lt;extend&amp;gt;&amp;gt;" style="html=1;verticalAlign=bottom;labelBackgroundColor=none;endArrow=open;endFill=0;dashed=1;entryX=1;entryY=1;entryDx=0;entryDy=0;exitX=0;exitY=0.5;exitDx=0;exitDy=0;" parent="1" source="14" target="11" edge="1">
                    <mxGeometry width="160" relative="1" as="geometry">
                        <mxPoint x="465.52" y="267.03999999999996" as="sourcePoint"/>
                        <mxPoint x="392.42640687119297" y="321.715728752538" as="targetPoint"/>
                    </mxGeometry>
                </mxCell>
                <mxCell id="44" value="se connecter&amp;nbsp;" style="ellipse;whiteSpace=wrap;html=1;fillColor=#d5e8d4;strokeColor=#82b366;" parent="1" vertex="1">
                    <mxGeometry x="660" y="710" width="120" height="80" as="geometry"/>
                </mxCell>
                <mxCell id="46" value="&amp;lt;&amp;lt;include&amp;gt;&amp;gt;" style="html=1;verticalAlign=bottom;labelBackgroundColor=none;endArrow=open;endFill=0;dashed=1;entryX=1;entryY=0;entryDx=0;entryDy=0;exitX=0.404;exitY=0.007;exitDx=0;exitDy=0;exitPerimeter=0;" parent="1" source="6" target="44" edge="1">
                    <mxGeometry width="160" relative="1" as="geometry">
                        <mxPoint x="330" y="270" as="sourcePoint"/>
                        <mxPoint x="680" y="440" as="targetPoint"/>
                        <Array as="points">
                            <mxPoint x="740" y="260"/>
                        </Array>
                    </mxGeometry>
                </mxCell>
                <mxCell id="48" value="&amp;lt;&amp;lt;include&amp;gt;&amp;gt;" style="html=1;verticalAlign=bottom;labelBackgroundColor=none;endArrow=open;endFill=0;dashed=1;exitX=0.5;exitY=1;exitDx=0;exitDy=0;entryX=0.5;entryY=0;entryDx=0;entryDy=0;" parent="1" source="12" target="44" edge="1">
                    <mxGeometry width="160" relative="1" as="geometry">
                        <mxPoint x="520" y="500" as="sourcePoint"/>
                        <mxPoint x="680" y="500" as="targetPoint"/>
                        <Array as="points">
                            <mxPoint x="710" y="490"/>
                        </Array>
                    </mxGeometry>
                </mxCell>
                <mxCell id="49" value="&amp;lt;&amp;lt;include&amp;gt;&amp;gt;" style="html=1;verticalAlign=bottom;labelBackgroundColor=none;endArrow=open;endFill=0;dashed=1;exitX=0.5;exitY=1;exitDx=0;exitDy=0;entryX=0;entryY=0.5;entryDx=0;entryDy=0;" parent="1" source="11" target="44" edge="1">
                    <mxGeometry width="160" relative="1" as="geometry">
                        <mxPoint x="320" y="490" as="sourcePoint"/>
                        <mxPoint x="720" y="790" as="targetPoint"/>
                        <Array as="points">
                            <mxPoint x="310" y="750"/>
                        </Array>
                    </mxGeometry>
                </mxCell>
                <mxCell id="88" value="explorés les différents thémes" style="ellipse;whiteSpace=wrap;html=1;fillColor=#dae8fc;strokeColor=#6c8ebf;" parent="1" vertex="1">
                    <mxGeometry x="260" y="770" width="120" height="80" as="geometry"/>
                </mxCell>
                <mxCell id="90" value="ajouter mes propres articles" style="ellipse;whiteSpace=wrap;html=1;fillColor=#dae8fc;strokeColor=#6c8ebf;" parent="1" vertex="1">
                    <mxGeometry x="260" y="860" width="120" height="80" as="geometry"/>
                </mxCell>
                <mxCell id="93" value="ajouter des tages" style="ellipse;whiteSpace=wrap;html=1;fillColor=#dae8fc;strokeColor=#6c8ebf;" parent="1" vertex="1">
                    <mxGeometry x="260" y="960" width="120" height="80" as="geometry"/>
                </mxCell>
                <mxCell id="95" value="ajouter cmts sur un&amp;nbsp; article" style="ellipse;whiteSpace=wrap;html=1;fillColor=#dae8fc;strokeColor=#6c8ebf;" parent="1" vertex="1">
                    <mxGeometry x="260" y="1060" width="120" height="80" as="geometry"/>
                </mxCell>
                <mxCell id="97" value="gestion d'articles&amp;nbsp;" style="ellipse;whiteSpace=wrap;html=1;fillColor=#dae8fc;strokeColor=#6c8ebf;" parent="1" vertex="1">
                    <mxGeometry x="260" y="1160" width="120" height="80" as="geometry"/>
                </mxCell>
                <mxCell id="100" value="pagination simple des articles&amp;nbsp;" style="ellipse;whiteSpace=wrap;html=1;fillColor=#dae8fc;strokeColor=#6c8ebf;" parent="1" vertex="1">
                    <mxGeometry x="490" y="1110" width="120" height="80" as="geometry"/>
                </mxCell>
                <mxCell id="101" value="&amp;lt;&amp;lt;extend&amp;gt;&amp;gt;" style="html=1;verticalAlign=bottom;labelBackgroundColor=none;endArrow=open;endFill=0;dashed=1;entryX=1;entryY=0.5;entryDx=0;entryDy=0;exitX=0;exitY=0.5;exitDx=0;exitDy=0;" parent="1" source="100" target="97" edge="1">
                    <mxGeometry width="160" relative="1" as="geometry">
                        <mxPoint x="430" y="1020" as="sourcePoint"/>
                        <mxPoint x="590" y="1020" as="targetPoint"/>
                    </mxGeometry>
                </mxCell>
                <mxCell id="102" value="ajouter un article a mes favoris" style="ellipse;whiteSpace=wrap;html=1;fillColor=#dae8fc;strokeColor=#6c8ebf;" parent="1" vertex="1">
                    <mxGeometry x="500" y="1250" width="120" height="80" as="geometry"/>
                </mxCell>
                <mxCell id="103" value="&amp;lt;&amp;lt;extend&amp;gt;&amp;gt;" style="html=1;verticalAlign=bottom;labelBackgroundColor=none;endArrow=open;endFill=0;dashed=1;exitX=0;exitY=0.5;exitDx=0;exitDy=0;" parent="1" source="102" edge="1">
                    <mxGeometry width="160" relative="1" as="geometry">
                        <mxPoint x="500" y="1160" as="sourcePoint"/>
                        <mxPoint x="370" y="1220" as="targetPoint"/>
                    </mxGeometry>
                </mxCell>
                <mxCell id="104" value="filtrer les articles par tags&amp;nbsp;" style="ellipse;whiteSpace=wrap;html=1;fillColor=#dae8fc;strokeColor=#6c8ebf;" parent="1" vertex="1">
                    <mxGeometry x="500" y="1340" width="120" height="80" as="geometry"/>
                </mxCell>
                <mxCell id="105" value="&amp;lt;&amp;lt;extend&amp;gt;&amp;gt;" style="html=1;verticalAlign=bottom;labelBackgroundColor=none;endArrow=open;endFill=0;dashed=1;entryX=0.749;entryY=0.968;entryDx=0;entryDy=0;exitX=0;exitY=0.5;exitDx=0;exitDy=0;entryPerimeter=0;" parent="1" source="104" target="97" edge="1">
                    <mxGeometry width="160" relative="1" as="geometry">
                        <mxPoint x="510" y="1250" as="sourcePoint"/>
                        <mxPoint x="372.42640687119274" y="1238.284271247462" as="targetPoint"/>
                    </mxGeometry>
                </mxCell>
                <mxCell id="106" value="gestion des cmts&amp;nbsp;" style="ellipse;whiteSpace=wrap;html=1;fillColor=#dae8fc;strokeColor=#6c8ebf;" parent="1" vertex="1">
                    <mxGeometry x="240" y="1580" width="120" height="80" as="geometry"/>
                </mxCell>
                <mxCell id="108" value="modifier mon propre cmt" style="ellipse;whiteSpace=wrap;html=1;fillColor=#dae8fc;strokeColor=#6c8ebf;" parent="1" vertex="1">
                    <mxGeometry x="510" y="1540" width="120" height="80" as="geometry"/>
                </mxCell>
                <mxCell id="109" value="&amp;lt;&amp;lt;extend&amp;gt;&amp;gt;" style="html=1;verticalAlign=bottom;labelBackgroundColor=none;endArrow=open;endFill=0;dashed=1;entryX=1;entryY=0.5;entryDx=0;entryDy=0;" parent="1" source="108" target="106" edge="1">
                    <mxGeometry width="160" relative="1" as="geometry">
                        <mxPoint x="500" y="1340" as="sourcePoint"/>
                        <mxPoint x="330" y="1250" as="targetPoint"/>
                        <Array as="points"/>
                    </mxGeometry>
                </mxCell>
                <mxCell id="111" value="supprimer mon propre cmt" style="ellipse;whiteSpace=wrap;html=1;fillColor=#dae8fc;strokeColor=#6c8ebf;" parent="1" vertex="1">
                    <mxGeometry x="520" y="1640" width="120" height="80" as="geometry"/>
                </mxCell>
                <mxCell id="112" value="&amp;lt;&amp;lt;extend&amp;gt;&amp;gt;" style="html=1;verticalAlign=bottom;labelBackgroundColor=none;endArrow=open;endFill=0;dashed=1;entryX=0.945;entryY=0.784;entryDx=0;entryDy=0;exitX=0;exitY=0.5;exitDx=0;exitDy=0;entryPerimeter=0;" parent="1" source="111" target="106" edge="1">
                    <mxGeometry width="160" relative="1" as="geometry">
                        <mxPoint x="500.0000000000043" y="1340" as="sourcePoint"/>
                        <mxPoint x="330" y="1250" as="targetPoint"/>
                    </mxGeometry>
                </mxCell>
                <mxCell id="113" value="recherche article par son titre&amp;nbsp;" style="ellipse;whiteSpace=wrap;html=1;fillColor=#dae8fc;strokeColor=#6c8ebf;" parent="1" vertex="1">
                    <mxGeometry x="500" y="1440" width="120" height="80" as="geometry"/>
                </mxCell>
                <mxCell id="114" value="&amp;lt;&amp;lt;extend&amp;gt;&amp;gt;" style="html=1;verticalAlign=bottom;labelBackgroundColor=none;endArrow=open;endFill=0;dashed=1;entryX=0;entryY=1;entryDx=0;entryDy=0;" parent="1" source="113" target="97" edge="1">
                    <mxGeometry width="160" relative="1" as="geometry">
                        <mxPoint x="500" y="1340" as="sourcePoint"/>
                        <mxPoint x="330" y="1250" as="targetPoint"/>
                    </mxGeometry>
                </mxCell>
                <mxCell id="116" value="clické sur un theme pour afficher les articles&amp;nbsp;" style="ellipse;whiteSpace=wrap;html=1;fillColor=#dae8fc;strokeColor=#6c8ebf;" vertex="1" parent="1">
                    <mxGeometry x="480" y="770" width="120" height="80" as="geometry"/>
                </mxCell>
                <mxCell id="117" value="&amp;lt;&amp;lt;extend&amp;gt;&amp;gt;" style="html=1;verticalAlign=bottom;labelBackgroundColor=none;endArrow=open;endFill=0;dashed=1;" edge="1" parent="1" source="116" target="88">
                    <mxGeometry width="160" relative="1" as="geometry">
                        <mxPoint x="500" y="1160" as="sourcePoint"/>
                        <mxPoint x="390" y="1210" as="targetPoint"/>
                    </mxGeometry>
                </mxCell>
                <mxCell id="118" value="" style="endArrow=none;html=1;exitX=0.5;exitY=0.5;exitDx=0;exitDy=0;exitPerimeter=0;" edge="1" parent="1" source="4" target="12">
                    <mxGeometry width="50" height="50" relative="1" as="geometry">
                        <mxPoint x="600" y="620" as="sourcePoint"/>
                        <mxPoint x="650" y="570" as="targetPoint"/>
                        <Array as="points">
                            <mxPoint x="105" y="440"/>
                        </Array>
                    </mxGeometry>
                </mxCell>
                <mxCell id="119" value="" style="endArrow=none;html=1;exitX=0;exitY=0.5;exitDx=0;exitDy=0;" edge="1" parent="1" source="9">
                    <mxGeometry width="50" height="50" relative="1" as="geometry">
                        <mxPoint x="600" y="620" as="sourcePoint"/>
                        <mxPoint x="100" y="280" as="targetPoint"/>
                        <Array as="points">
                            <mxPoint x="100" y="550"/>
                        </Array>
                    </mxGeometry>
                </mxCell>
                <mxCell id="120" value="" style="endArrow=none;html=1;entryX=1;entryY=1;entryDx=0;entryDy=0;entryPerimeter=0;exitX=0;exitY=0.5;exitDx=0;exitDy=0;" edge="1" parent="1" source="11" target="4">
                    <mxGeometry width="50" height="50" relative="1" as="geometry">
                        <mxPoint x="600" y="620" as="sourcePoint"/>
                        <mxPoint x="650" y="570" as="targetPoint"/>
                        <Array as="points">
                            <mxPoint x="120" y="650"/>
                        </Array>
                    </mxGeometry>
                </mxCell>
                <mxCell id="121" value="" style="endArrow=none;html=1;entryX=0;entryY=1;entryDx=0;entryDy=0;entryPerimeter=0;exitX=0.014;exitY=0.336;exitDx=0;exitDy=0;exitPerimeter=0;" edge="1" parent="1" source="88" target="4">
                    <mxGeometry width="50" height="50" relative="1" as="geometry">
                        <mxPoint x="600" y="620" as="sourcePoint"/>
                        <mxPoint x="650" y="570" as="targetPoint"/>
                        <Array as="points">
                            <mxPoint x="90" y="800"/>
                        </Array>
                    </mxGeometry>
                </mxCell>
                <mxCell id="122" value="" style="endArrow=none;html=1;exitX=0;exitY=0.5;exitDx=0;exitDy=0;" edge="1" parent="1" source="90" target="4">
                    <mxGeometry width="50" height="50" relative="1" as="geometry">
                        <mxPoint x="440" y="630" as="sourcePoint"/>
                        <mxPoint x="490" y="580" as="targetPoint"/>
                        <Array as="points">
                            <mxPoint x="90" y="890"/>
                        </Array>
                    </mxGeometry>
                </mxCell>
                <mxCell id="123" value="" style="endArrow=none;html=1;exitX=0;exitY=0.5;exitDx=0;exitDy=0;" edge="1" parent="1" source="93">
                    <mxGeometry width="50" height="50" relative="1" as="geometry">
                        <mxPoint x="550" y="790" as="sourcePoint"/>
                        <mxPoint x="110" y="280" as="targetPoint"/>
                        <Array as="points">
                            <mxPoint x="100" y="1000"/>
                        </Array>
                    </mxGeometry>
                </mxCell>
                <mxCell id="124" value="" style="endArrow=none;html=1;entryX=0.5;entryY=0.5;entryDx=0;entryDy=0;entryPerimeter=0;exitX=0;exitY=0.5;exitDx=0;exitDy=0;" edge="1" parent="1" source="95" target="4">
                    <mxGeometry width="50" height="50" relative="1" as="geometry">
                        <mxPoint x="380" y="460" as="sourcePoint"/>
                        <mxPoint x="430" y="410" as="targetPoint"/>
                        <Array as="points">
                            <mxPoint x="100" y="1100"/>
                        </Array>
                    </mxGeometry>
                </mxCell>
                <mxCell id="125" value="" style="endArrow=none;html=1;entryX=0.5;entryY=0.5;entryDx=0;entryDy=0;entryPerimeter=0;exitX=0;exitY=0.5;exitDx=0;exitDy=0;" edge="1" parent="1" source="97" target="4">
                    <mxGeometry width="50" height="50" relative="1" as="geometry">
                        <mxPoint x="530" y="920" as="sourcePoint"/>
                        <mxPoint x="580" y="870" as="targetPoint"/>
                        <Array as="points">
                            <mxPoint x="105" y="1200"/>
                        </Array>
                    </mxGeometry>
                </mxCell>
                <mxCell id="127" value="" style="endArrow=none;html=1;entryX=0;entryY=0.3333333333333333;entryDx=0;entryDy=0;entryPerimeter=0;exitX=0;exitY=0.5;exitDx=0;exitDy=0;" edge="1" parent="1" source="106" target="4">
                    <mxGeometry width="50" height="50" relative="1" as="geometry">
                        <mxPoint x="670" y="1360" as="sourcePoint"/>
                        <mxPoint x="720" y="1310" as="targetPoint"/>
                        <Array as="points">
                            <mxPoint x="70" y="1620"/>
                        </Array>
                    </mxGeometry>
                </mxCell>
                <mxCell id="163" value="ajouter multiplement&amp;nbsp;" style="ellipse;whiteSpace=wrap;html=1;fillColor=#fff2cc;strokeColor=#d6b656;" vertex="1" parent="1">
                    <mxGeometry x="250" y="1970" width="120" height="80" as="geometry"/>
                </mxCell>
                <mxCell id="164" value="gérer les véhicules&lt;br&gt;" style="ellipse;whiteSpace=wrap;html=1;fillColor=#fff2cc;strokeColor=#d6b656;" vertex="1" parent="1">
                    <mxGeometry x="250" y="2070" width="120" height="80" as="geometry"/>
                </mxCell>
                <mxCell id="165" value="gérer les avis&amp;nbsp;" style="ellipse;whiteSpace=wrap;html=1;fillColor=#fff2cc;strokeColor=#d6b656;" vertex="1" parent="1">
                    <mxGeometry x="260" y="2180" width="120" height="80" as="geometry"/>
                </mxCell>
                <mxCell id="166" value="gérer les clients" style="ellipse;whiteSpace=wrap;html=1;fillColor=#fff2cc;strokeColor=#d6b656;" vertex="1" parent="1">
                    <mxGeometry x="260" y="2290" width="120" height="80" as="geometry"/>
                </mxCell>
                <mxCell id="167" value="ajouter&amp;nbsp; des catégories&amp;nbsp;" style="ellipse;whiteSpace=wrap;html=1;fillColor=#f8cecc;strokeColor=#b85450;" vertex="1" parent="1">
                    <mxGeometry x="465" y="1920" width="120" height="80" as="geometry"/>
                </mxCell>
                <mxCell id="168" value="ajouter des véhicules&amp;nbsp;" style="ellipse;whiteSpace=wrap;html=1;fillColor=#f8cecc;strokeColor=#b85450;" vertex="1" parent="1">
                    <mxGeometry x="465" y="2010" width="120" height="80" as="geometry"/>
                </mxCell>
                <mxCell id="170" value="gérer les thèmes&amp;nbsp;" style="ellipse;whiteSpace=wrap;html=1;fillColor=#fff2cc;strokeColor=#d6b656;" vertex="1" parent="1">
                    <mxGeometry x="260" y="2390" width="120" height="80" as="geometry"/>
                </mxCell>
                <mxCell id="171" value="gérer les articles&amp;nbsp;" style="ellipse;whiteSpace=wrap;html=1;fillColor=#fff2cc;strokeColor=#d6b656;" vertex="1" parent="1">
                    <mxGeometry x="260" y="2480" width="120" height="80" as="geometry"/>
                </mxCell>
                <mxCell id="172" value="gérer les commentaires&amp;nbsp;" style="ellipse;whiteSpace=wrap;html=1;fillColor=#fff2cc;strokeColor=#d6b656;" vertex="1" parent="1">
                    <mxGeometry x="260" y="2580" width="120" height="80" as="geometry"/>
                </mxCell>
                <mxCell id="173" value="approuver les articles&amp;nbsp;" style="ellipse;whiteSpace=wrap;html=1;fillColor=#f8cecc;strokeColor=#b85450;" vertex="1" parent="1">
                    <mxGeometry x="480" y="2470" width="120" height="80" as="geometry"/>
                </mxCell>
                <mxCell id="174" value="" style="endArrow=none;html=1;exitX=0.5;exitY=0;exitDx=0;exitDy=0;exitPerimeter=0;entryX=0.017;entryY=0.675;entryDx=0;entryDy=0;entryPerimeter=0;" edge="1" parent="1" source="15" target="163">
                    <mxGeometry width="50" height="50" relative="1" as="geometry">
                        <mxPoint x="760" y="2100" as="sourcePoint"/>
                        <mxPoint x="810" y="2050" as="targetPoint"/>
                        <Array as="points">
                            <mxPoint x="65" y="2024"/>
                        </Array>
                    </mxGeometry>
                </mxCell>
                <mxCell id="175" value="" style="endArrow=none;html=1;exitX=0.5;exitY=0;exitDx=0;exitDy=0;exitPerimeter=0;entryX=0;entryY=0.5;entryDx=0;entryDy=0;" edge="1" parent="1" source="15" target="164">
                    <mxGeometry width="50" height="50" relative="1" as="geometry">
                        <mxPoint x="610" y="2060" as="sourcePoint"/>
                        <mxPoint x="660" y="2010" as="targetPoint"/>
                    </mxGeometry>
                </mxCell>
                <mxCell id="176" value="" style="endArrow=none;html=1;exitX=0.5;exitY=0.5;exitDx=0;exitDy=0;exitPerimeter=0;entryX=0;entryY=0.5;entryDx=0;entryDy=0;" edge="1" parent="1" source="15" target="165">
                    <mxGeometry width="50" height="50" relative="1" as="geometry">
                        <mxPoint x="610" y="2060" as="sourcePoint"/>
                        <mxPoint x="660" y="2010" as="targetPoint"/>
                    </mxGeometry>
                </mxCell>
                <mxCell id="177" value="" style="endArrow=none;html=1;exitX=0.333;exitY=0.733;exitDx=0;exitDy=0;exitPerimeter=0;entryX=0;entryY=0.5;entryDx=0;entryDy=0;" edge="1" parent="1" source="15" target="166">
                    <mxGeometry width="50" height="50" relative="1" as="geometry">
                        <mxPoint x="610" y="2060" as="sourcePoint"/>
                        <mxPoint x="660" y="2010" as="targetPoint"/>
                    </mxGeometry>
                </mxCell>
                <mxCell id="178" value="" style="endArrow=none;html=1;exitX=0;exitY=1;exitDx=0;exitDy=0;exitPerimeter=0;entryX=0;entryY=0.5;entryDx=0;entryDy=0;" edge="1" parent="1" source="15" target="170">
                    <mxGeometry width="50" height="50" relative="1" as="geometry">
                        <mxPoint x="610" y="2310" as="sourcePoint"/>
                        <mxPoint x="660" y="2260" as="targetPoint"/>
                        <Array as="points">
                            <mxPoint x="60" y="2430"/>
                        </Array>
                    </mxGeometry>
                </mxCell>
                <mxCell id="179" value="" style="endArrow=none;html=1;entryX=0.5;entryY=0.5;entryDx=0;entryDy=0;entryPerimeter=0;exitX=0.027;exitY=0.7;exitDx=0;exitDy=0;exitPerimeter=0;" edge="1" parent="1" source="171" target="15">
                    <mxGeometry width="50" height="50" relative="1" as="geometry">
                        <mxPoint x="610" y="2310" as="sourcePoint"/>
                        <mxPoint x="660" y="2260" as="targetPoint"/>
                        <Array as="points">
                            <mxPoint x="80" y="2540"/>
                        </Array>
                    </mxGeometry>
                </mxCell>
                <mxCell id="180" value="" style="endArrow=none;html=1;entryX=0;entryY=0.3333333333333333;entryDx=0;entryDy=0;entryPerimeter=0;exitX=0;exitY=0.5;exitDx=0;exitDy=0;" edge="1" parent="1" source="172" target="15">
                    <mxGeometry width="50" height="50" relative="1" as="geometry">
                        <mxPoint x="610" y="2310" as="sourcePoint"/>
                        <mxPoint x="660" y="2260" as="targetPoint"/>
                        <Array as="points">
                            <mxPoint x="60" y="2630"/>
                        </Array>
                    </mxGeometry>
                </mxCell>
                <mxCell id="181" value="&amp;lt;&amp;lt;extend&amp;gt;&amp;gt;" style="html=1;verticalAlign=bottom;labelBackgroundColor=none;endArrow=open;endFill=0;dashed=1;entryX=1;entryY=0.5;entryDx=0;entryDy=0;" edge="1" parent="1" source="167" target="163">
                    <mxGeometry width="160" relative="1" as="geometry">
                        <mxPoint x="450" y="2460" as="sourcePoint"/>
                        <mxPoint x="610" y="2460" as="targetPoint"/>
                    </mxGeometry>
                </mxCell>
                <mxCell id="182" value="&amp;lt;&amp;lt;extend&amp;gt;&amp;gt;" style="html=1;verticalAlign=bottom;labelBackgroundColor=none;endArrow=open;endFill=0;dashed=1;entryX=1;entryY=1;entryDx=0;entryDy=0;" edge="1" parent="1" source="168" target="163">
                    <mxGeometry width="160" relative="1" as="geometry">
                        <mxPoint x="440" y="2110" as="sourcePoint"/>
                        <mxPoint x="600" y="2110" as="targetPoint"/>
                    </mxGeometry>
                </mxCell>
                <mxCell id="183" value="&amp;lt;&amp;lt;extend&amp;gt;&amp;gt;" style="html=1;verticalAlign=bottom;labelBackgroundColor=none;endArrow=open;endFill=0;dashed=1;entryX=1;entryY=0.5;entryDx=0;entryDy=0;exitX=0;exitY=0.5;exitDx=0;exitDy=0;" edge="1" parent="1" source="173" target="171">
                    <mxGeometry width="160" relative="1" as="geometry">
                        <mxPoint x="450" y="2470" as="sourcePoint"/>
                        <mxPoint x="610" y="2470" as="targetPoint"/>
                    </mxGeometry>
                </mxCell>
                <mxCell id="184" value="&amp;lt;&amp;lt;include&amp;gt;&amp;gt;" style="html=1;verticalAlign=bottom;labelBackgroundColor=none;endArrow=open;endFill=0;dashed=1;entryX=0.5;entryY=1;entryDx=0;entryDy=0;" edge="1" parent="1" source="88" target="44">
                    <mxGeometry width="160" relative="1" as="geometry">
                        <mxPoint x="690" y="500" as="sourcePoint"/>
                        <mxPoint x="850" y="500" as="targetPoint"/>
                        <Array as="points">
                            <mxPoint x="550" y="870"/>
                        </Array>
                    </mxGeometry>
                </mxCell>
                <mxCell id="185" value="&amp;lt;&amp;lt;include&amp;gt;&amp;gt;" style="html=1;verticalAlign=bottom;labelBackgroundColor=none;endArrow=open;endFill=0;dashed=1;exitX=1;exitY=0.5;exitDx=0;exitDy=0;entryX=0.711;entryY=0.986;entryDx=0;entryDy=0;entryPerimeter=0;" edge="1" parent="1" source="90" target="44">
                    <mxGeometry width="160" relative="1" as="geometry">
                        <mxPoint x="630" y="700" as="sourcePoint"/>
                        <mxPoint x="790" y="700" as="targetPoint"/>
                        <Array as="points">
                            <mxPoint x="750" y="900"/>
                        </Array>
                    </mxGeometry>
                </mxCell>
                <mxCell id="186" value="&amp;lt;&amp;lt;include&amp;gt;&amp;gt;" style="html=1;verticalAlign=bottom;labelBackgroundColor=none;endArrow=open;endFill=0;dashed=1;entryX=1;entryY=1;entryDx=0;entryDy=0;" edge="1" parent="1" source="93" target="44">
                    <mxGeometry width="160" relative="1" as="geometry">
                        <mxPoint x="630" y="970" as="sourcePoint"/>
                        <mxPoint x="790" y="970" as="targetPoint"/>
                        <Array as="points">
                            <mxPoint x="770" y="990"/>
                        </Array>
                    </mxGeometry>
                </mxCell>
                <mxCell id="187" value="&amp;lt;&amp;lt;include&amp;gt;&amp;gt;" style="html=1;verticalAlign=bottom;labelBackgroundColor=none;endArrow=open;endFill=0;dashed=1;entryX=1.006;entryY=0.757;entryDx=0;entryDy=0;entryPerimeter=0;" edge="1" parent="1" source="95" target="44">
                    <mxGeometry width="160" relative="1" as="geometry">
                        <mxPoint x="630" y="970" as="sourcePoint"/>
                        <mxPoint x="790" y="970" as="targetPoint"/>
                        <Array as="points">
                            <mxPoint x="790" y="1080"/>
                        </Array>
                    </mxGeometry>
                </mxCell>
                <mxCell id="188" value="&amp;lt;&amp;lt;include&amp;gt;&amp;gt;" style="html=1;verticalAlign=bottom;labelBackgroundColor=none;endArrow=open;endFill=0;dashed=1;exitX=1;exitY=0.5;exitDx=0;exitDy=0;entryX=1;entryY=0.5;entryDx=0;entryDy=0;" edge="1" parent="1" source="97" target="44">
                    <mxGeometry width="160" relative="1" as="geometry">
                        <mxPoint x="630" y="1150" as="sourcePoint"/>
                        <mxPoint x="790" y="1150" as="targetPoint"/>
                        <Array as="points">
                            <mxPoint x="790" y="1190"/>
                        </Array>
                    </mxGeometry>
                </mxCell>
                <mxCell id="190" value="&amp;lt;&amp;lt;include&amp;gt;&amp;gt;" style="html=1;verticalAlign=bottom;labelBackgroundColor=none;endArrow=open;endFill=0;dashed=1;entryX=1;entryY=0;entryDx=0;entryDy=0;" edge="1" parent="1" source="106" target="44">
                    <mxGeometry width="160" relative="1" as="geometry">
                        <mxPoint x="630" y="1270" as="sourcePoint"/>
                        <mxPoint x="790" y="1270" as="targetPoint"/>
                        <Array as="points">
                            <mxPoint x="790" y="1620"/>
                        </Array>
                    </mxGeometry>
                </mxCell>
                <mxCell id="191" value="se connecter&amp;nbsp;" style="ellipse;whiteSpace=wrap;html=1;fillColor=#d5e8d4;strokeColor=#82b366;" vertex="1" parent="1">
                    <mxGeometry x="670" y="2280" width="120" height="80" as="geometry"/>
                </mxCell>
                <mxCell id="192" value="&amp;lt;&amp;lt;include&amp;gt;&amp;gt;" style="html=1;verticalAlign=bottom;labelBackgroundColor=none;endArrow=open;endFill=0;dashed=1;exitX=1;exitY=0.5;exitDx=0;exitDy=0;" edge="1" parent="1" source="163" target="191">
                    <mxGeometry width="160" relative="1" as="geometry">
                        <mxPoint x="700" y="2130" as="sourcePoint"/>
                        <mxPoint x="860" y="2130" as="targetPoint"/>
                        <Array as="points">
                            <mxPoint x="720" y="2000"/>
                        </Array>
                    </mxGeometry>
                </mxCell>
                <mxCell id="193" value="&amp;lt;&amp;lt;include&amp;gt;&amp;gt;" style="html=1;verticalAlign=bottom;labelBackgroundColor=none;endArrow=open;endFill=0;dashed=1;exitX=1;exitY=0.5;exitDx=0;exitDy=0;entryX=0.5;entryY=0;entryDx=0;entryDy=0;" edge="1" parent="1" source="164" target="191">
                    <mxGeometry width="160" relative="1" as="geometry">
                        <mxPoint x="700" y="2130" as="sourcePoint"/>
                        <mxPoint x="860" y="2130" as="targetPoint"/>
                        <Array as="points">
                            <mxPoint x="720" y="2120"/>
                        </Array>
                    </mxGeometry>
                </mxCell>
                <mxCell id="194" value="&amp;lt;&amp;lt;include&amp;gt;&amp;gt;" style="html=1;verticalAlign=bottom;labelBackgroundColor=none;endArrow=open;endFill=0;dashed=1;exitX=0.685;exitY=0.026;exitDx=0;exitDy=0;entryX=0.409;entryY=-0.011;entryDx=0;entryDy=0;entryPerimeter=0;exitPerimeter=0;" edge="1" parent="1" source="165" target="191">
                    <mxGeometry width="160" relative="1" as="geometry">
                        <mxPoint x="680" y="2190" as="sourcePoint"/>
                        <mxPoint x="840" y="2190" as="targetPoint"/>
                        <Array as="points">
                            <mxPoint x="709" y="2180"/>
                        </Array>
                    </mxGeometry>
                </mxCell>
                <mxCell id="195" value="&amp;lt;&amp;lt;include&amp;gt;&amp;gt;" style="html=1;verticalAlign=bottom;labelBackgroundColor=none;endArrow=open;endFill=0;dashed=1;exitX=1;exitY=0.5;exitDx=0;exitDy=0;" edge="1" parent="1" source="165">
                    <mxGeometry width="160" relative="1" as="geometry">
                        <mxPoint x="540" y="2290" as="sourcePoint"/>
                        <mxPoint x="700" y="2290" as="targetPoint"/>
                        <Array as="points">
                            <mxPoint x="690" y="2220"/>
                        </Array>
                    </mxGeometry>
                </mxCell>
                <mxCell id="196" value="&amp;lt;&amp;lt;include&amp;gt;&amp;gt;" style="html=1;verticalAlign=bottom;labelBackgroundColor=none;endArrow=open;endFill=0;dashed=1;exitX=1;exitY=0.5;exitDx=0;exitDy=0;" edge="1" parent="1" source="166">
                    <mxGeometry width="160" relative="1" as="geometry">
                        <mxPoint x="540" y="2290" as="sourcePoint"/>
                        <mxPoint x="680" y="2330" as="targetPoint"/>
                    </mxGeometry>
                </mxCell>
                <mxCell id="197" value="&amp;lt;&amp;lt;include&amp;gt;&amp;gt;" style="html=1;verticalAlign=bottom;labelBackgroundColor=none;endArrow=open;endFill=0;dashed=1;exitX=1;exitY=1;exitDx=0;exitDy=0;entryX=0.667;entryY=1;entryDx=0;entryDy=0;entryPerimeter=0;" edge="1" parent="1" source="172" target="191">
                    <mxGeometry width="160" relative="1" as="geometry">
                        <mxPoint x="540" y="2580" as="sourcePoint"/>
                        <mxPoint x="700" y="2580" as="targetPoint"/>
                        <Array as="points">
                            <mxPoint x="750" y="2648"/>
                        </Array>
                    </mxGeometry>
                </mxCell>
                <mxCell id="198" value="&amp;lt;&amp;lt;include&amp;gt;&amp;gt;" style="html=1;verticalAlign=bottom;labelBackgroundColor=none;endArrow=open;endFill=0;dashed=1;exitX=1;exitY=0;exitDx=0;exitDy=0;entryX=0.5;entryY=1;entryDx=0;entryDy=0;" edge="1" parent="1" source="171" target="191">
                    <mxGeometry width="160" relative="1" as="geometry">
                        <mxPoint x="540" y="2580" as="sourcePoint"/>
                        <mxPoint x="700" y="2580" as="targetPoint"/>
                        <Array as="points">
                            <mxPoint x="590" y="2420"/>
                        </Array>
                    </mxGeometry>
                </mxCell>
                <mxCell id="199" value="&amp;lt;&amp;lt;include&amp;gt;&amp;gt;" style="html=1;verticalAlign=bottom;labelBackgroundColor=none;endArrow=open;endFill=0;dashed=1;exitX=1;exitY=0;exitDx=0;exitDy=0;entryX=0;entryY=1;entryDx=0;entryDy=0;" edge="1" parent="1" source="170" target="191">
                    <mxGeometry width="160" relative="1" as="geometry">
                        <mxPoint x="540" y="2580" as="sourcePoint"/>
                        <mxPoint x="700" y="2580" as="targetPoint"/>
                    </mxGeometry>
                </mxCell>
            </root>
        </mxGraphModel>
    </diagram>
</mxfile>